<svg width="238" height="230" viewBox="0 0 238 230" fill="none" xmlns="http://www.w3.org/2000/svg">
<path d="M119 114.5C112.033 114.5 106.069 111.677 101.108 106.03C96.1471 100.384 93.6666 93.5958 93.6666 85.6666C93.6666 77.7374 96.1471 70.9496 101.108 65.303C106.069 59.6565 112.033 56.8333 119 56.8333C125.967 56.8333 131.93 59.6565 136.892 65.303C141.853 70.9496 144.333 77.7374 144.333 85.6666C144.333 93.5958 141.853 100.384 136.892 106.03C131.93 111.677 125.967 114.5 119 114.5ZM68.3333 172.167V151.983C68.3333 147.899 69.2569 144.144 71.1041 140.72C72.9513 137.296 75.4055 134.683 78.4666 132.881C85.011 129.157 91.661 126.364 98.4166 124.501C105.172 122.639 112.033 121.708 119 121.708C125.967 121.708 132.828 122.639 139.583 124.501C146.339 126.364 152.989 129.157 159.533 132.881C162.594 134.683 165.049 137.296 166.896 140.72C168.743 144.144 169.667 147.899 169.667 151.983V172.167H68.3333ZM80.9999 157.75H157V151.983C157 150.662 156.71 149.46 156.129 148.379C155.549 147.298 154.783 146.457 153.833 145.856C148.133 142.612 142.38 140.18 136.575 138.558C130.769 136.936 124.911 136.125 119 136.125C113.089 136.125 107.23 136.936 101.425 138.558C95.6194 140.18 89.8666 142.612 84.1666 145.856C83.2166 146.457 82.4513 147.298 81.8708 148.379C81.2902 149.46 80.9999 150.662 80.9999 151.983V157.75ZM119 100.083C122.483 100.083 125.465 98.6716 127.946 95.8484C130.426 93.0251 131.667 89.6312 131.667 85.6666C131.667 81.702 130.426 78.3081 127.946 75.4848C125.465 72.6616 122.483 71.2499 119 71.2499C115.517 71.2499 112.535 72.6616 110.054 75.4848C107.574 78.3081 106.333 81.702 106.333 85.6666C106.333 89.6312 107.574 93.0251 110.054 95.8484C112.535 98.6716 115.517 100.083 119 100.083Z" fill="#1D1B20"/>
<path d="M119 210.833C173.768 210.833 218.167 167.927 218.167 115C218.167 62.0728 173.768 19.1667 119 19.1667C64.2317 19.1667 19.8333 62.0728 19.8333 115C19.8333 167.927 64.2317 210.833 119 210.833Z" stroke="#1E1E1E" stroke-width="4" stroke-linecap="round" stroke-linejoin="round"/>
<path d="M119 114.5C112.033 114.5 106.069 111.677 101.108 106.03C96.1471 100.384 93.6666 93.5958 93.6666 85.6666C93.6666 77.7374 96.1471 70.9496 101.108 65.303C106.069 59.6565 112.033 56.8333 119 56.8333C125.967 56.8333 131.93 59.6565 136.892 65.303C141.853 70.9496 144.333 77.7374 144.333 85.6666C144.333 93.5958 141.853 100.384 136.892 106.03C131.93 111.677 125.967 114.5 119 114.5ZM68.3333 172.167V151.983C68.3333 147.899 69.2569 144.144 71.1041 140.72C72.9513 137.296 75.4055 134.683 78.4666 132.881C85.011 129.157 91.661 126.364 98.4166 124.501C105.172 122.639 112.033 121.708 119 121.708C125.967 121.708 132.828 122.639 139.583 124.501C146.339 126.364 152.989 129.157 159.533 132.881C162.594 134.683 165.049 137.296 166.896 140.72C168.743 144.144 169.667 147.899 169.667 151.983V172.167H68.3333ZM80.9999 157.75H157V151.983C157 150.662 156.71 149.46 156.129 148.379C155.549 147.298 154.783 146.457 153.833 145.856C148.133 142.612 142.38 140.18 136.575 138.558C130.769 136.936 124.911 136.125 119 136.125C113.089 136.125 107.23 136.936 101.425 138.558C95.6194 140.18 89.8666 142.612 84.1666 145.856C83.2166 146.457 82.4513 147.298 81.8708 148.379C81.2902 149.46 80.9999 150.662 80.9999 151.983V157.75ZM119 100.083C122.483 100.083 125.465 98.6716 127.946 95.8484C130.426 93.0251 131.667 89.6312 131.667 85.6666C131.667 81.702 130.426 78.3081 127.946 75.4848C125.465 72.6616 122.483 71.2499 119 71.2499C115.517 71.2499 112.535 72.6616 110.054 75.4848C107.574 78.3081 106.333 81.702 106.333 85.6666C106.333 89.6312 107.574 93.0251 110.054 95.8484C112.535 98.6716 115.517 100.083 119 100.083Z" fill="#1D1B20"/>
<path d="M119 210.833C173.768 210.833 218.167 167.927 218.167 115C218.167 62.0728 173.768 19.1667 119 19.1667C64.2317 19.1667 19.8333 62.0728 19.8333 115C19.8333 167.927 64.2317 210.833 119 210.833Z" stroke="#1E1E1E" stroke-width="4" stroke-linecap="round" stroke-linejoin="round"/>
</svg>
